<svg width="232" height="31" viewBox="0 0 232 31" fill="none" xmlns="http://www.w3.org/2000/svg">
<g clip-path="url(#clip0_4032_91737)">
<path fill-rule="evenodd" clip-rule="evenodd" d="M18.2531 0V8.9548L25.5029 13.1749V3.70543L18.2531 0ZM0 0V14.0498H23.4976L16.3506 10.1385H7.04414V3.80836L0 0ZM18.2531 26.1439V19.8652H8.84374C8.84374 19.9167 1.59393 15.851 1.59393 15.851L25.5029 15.954V30.0037L18.2531 26.1439ZM0 16.9318V26.0924L7.04414 29.9523V21.1004L0 16.9318Z" fill="#FED600"/>
<path fill-rule="evenodd" clip-rule="evenodd" d="M18.2531 0V8.9548L25.5029 13.1749V3.70543L18.2531 0ZM0 0V14.0498H23.4976L16.3506 10.1385H7.04414V3.80836L0 0Z" fill="#0071EA"/>
<path fill-rule="evenodd" clip-rule="evenodd" d="M165.769 0H165.101V29.9523H165.769V0ZM63.601 17.7552C63.9095 16.9318 64.0637 16.0054 64.0637 14.9246C64.0637 13.8439 63.9095 12.9175 63.601 12.0941C63.2925 11.2707 62.8297 10.6016 62.2641 10.0355C61.6985 9.46942 61.0301 9.05771 60.3103 8.80039C59.539 8.54307 58.7678 8.38867 57.8937 8.38867C57.071 8.38867 56.2998 8.54307 55.5285 8.80039C54.7572 9.05771 54.1402 9.52089 53.5746 10.0355C53.0091 10.6016 52.5463 11.2707 52.2378 12.0941C51.8779 12.9175 51.7236 13.8439 51.7236 14.9246C51.7236 16.0054 51.8779 16.9318 52.1864 17.7552C52.4949 18.5786 52.9576 19.2477 53.5232 19.8138C54.0888 20.3799 54.7572 20.7916 55.4771 21.0489C56.2483 21.3062 57.0196 21.4606 57.8937 21.4606C58.7678 21.4606 59.5904 21.3062 60.3617 21.0489C61.133 20.7916 61.8014 20.3799 62.3156 19.8138C62.8811 19.2991 63.2925 18.5786 63.601 17.7552ZM54.8087 16.623C54.6544 16.1083 54.603 15.5937 54.603 14.9761C54.603 14.3585 54.6544 13.8439 54.8087 13.3292C54.9629 12.8146 55.1686 12.4029 55.4771 12.0426C55.7342 11.6824 56.0941 11.4251 56.5054 11.2192C56.9168 11.0134 57.3795 10.9104 57.8937 10.9104C58.4079 10.9104 58.8706 11.0134 59.2819 11.2192C59.6933 11.4251 60.0532 11.6824 60.3103 12.0426C60.5674 12.4029 60.8245 12.8146 60.9787 13.3292C61.133 13.8439 61.1844 14.41 61.1844 15.0276C61.1844 15.6451 61.133 16.2113 60.9787 16.6744C60.8245 17.1891 60.6188 17.6008 60.3103 17.961C60.0532 18.3213 59.6933 18.5786 59.2819 18.7845C58.8706 18.9903 58.4079 19.0933 57.8937 19.0933C57.3795 19.0933 56.9168 18.9903 56.5054 18.7845C56.0941 18.5786 55.7342 18.3213 55.4771 17.961C55.1686 17.5493 54.9629 17.0861 54.8087 16.623ZM45.0935 8.74902H47.9214V21.2549H45.0935V15.954H40.3631V21.2549H37.5352V8.74902H40.3631V13.5352H45.0935V8.74902ZM72.1375 18.9903C71.8804 19.0418 71.5719 19.0933 71.1605 19.0933C70.3893 19.0933 69.6694 18.9903 69.1039 18.8359C68.5383 18.6815 68.0755 18.4757 67.7156 18.2698L66.9443 20.5343C67.0986 20.6372 67.3043 20.7401 67.5613 20.843C67.8184 20.946 68.0755 21.0489 68.4354 21.1518L68.4355 21.1518C68.7954 21.2548 69.1553 21.3577 69.618 21.4092C70.0808 21.4606 70.5435 21.5121 71.1091 21.5121C72.7545 21.5121 73.9885 21.2033 74.8112 20.5343C75.6338 19.8652 76.0452 18.9903 76.0452 17.8066C76.0452 17.1891 75.9423 16.6744 75.7881 16.2627C75.6338 15.7995 75.3767 15.4393 75.0682 15.1305C74.7597 14.8217 74.3484 14.5644 73.8857 14.3071C73.4773 14.08 72.9888 13.893 72.4203 13.6753L72.3284 13.6402L72.1889 13.5866C71.8804 13.4836 71.5719 13.3807 71.3148 13.2778C71.1567 13.2145 71.0181 13.1318 70.8869 13.0535L70.8869 13.0535C70.8048 13.0044 70.7256 12.9572 70.6464 12.9175C70.4407 12.8146 70.2865 12.6602 70.1836 12.5058C70.0808 12.3514 70.0294 12.1456 70.0294 11.9397C70.0294 11.528 70.1836 11.2707 70.4921 11.0648C70.8006 10.9104 71.2634 10.8075 71.9318 10.8075C72.5488 10.8075 73.063 10.859 73.4743 11.0134C73.9371 11.1163 74.297 11.2707 74.6569 11.4765L75.4796 9.26357C75.1563 9.03245 74.7086 8.88436 74.1737 8.70744C74.1131 8.68738 74.0513 8.66696 73.9885 8.64599C73.3715 8.4916 72.6516 8.38867 71.829 8.38867C71.1091 8.38867 70.4921 8.4916 69.9265 8.64599C69.3609 8.85185 68.8982 9.10917 68.4869 9.41796C68.0755 9.72675 67.767 10.1385 67.5613 10.6016C67.3557 11.0648 67.2528 11.5795 67.2528 12.1456C67.2528 12.7631 67.3557 13.2263 67.5613 13.638C67.767 14.0498 68.0241 14.3585 68.3326 14.6673C68.6411 14.9761 69.001 15.182 69.4124 15.3878C69.8237 15.5937 70.235 15.7481 70.6464 15.9025C71.5719 16.2113 72.2403 16.52 72.6002 16.7774C72.9601 17.0347 73.1658 17.3949 73.1658 17.8066C73.1658 18.0125 73.1144 18.1669 73.063 18.3213C73.0116 18.4757 72.9087 18.6301 72.7545 18.733C72.6002 18.8359 72.3946 18.9389 72.1375 18.9903ZM88.4374 8.64746V11.0663H84.6839V21.2048H81.856V11.0663H78.1025V8.64746H88.4374ZM94.4022 21.2562H91.5742V8.64746H94.4022V21.2562ZM106.947 21.2562C106.125 19.8152 105.251 18.3742 104.325 16.9847C103.4 15.5952 102.371 14.2571 101.343 13.0219V21.2562H98.5664V8.64746H100.829C101.24 9.05918 101.651 9.52236 102.166 10.1399C102.248 10.2413 102.333 10.3442 102.419 10.4489C102.812 10.9288 103.235 11.4434 103.657 11.9926C104.055 12.5111 104.423 13.0296 104.807 13.5721L104.81 13.5754C104.921 13.7318 105.033 13.8902 105.148 14.0512C105.662 14.7717 106.125 15.4408 106.536 16.1098V8.64746H109.313V21.2048H106.947V21.2562ZM116.717 11.9397C117.282 11.2192 118.259 10.859 119.545 10.859C120.162 10.859 120.676 10.9104 121.036 11.0648C121.55 11.2192 122.013 11.3736 122.373 11.5795L123.195 9.31503C123.153 9.29373 123.101 9.26361 123.041 9.22832L123.041 9.22825C122.956 9.1783 122.853 9.118 122.732 9.05771C122.527 8.95478 122.27 8.85185 121.91 8.74892C121.696 8.68792 121.465 8.64499 121.216 8.59872C121.044 8.56691 120.864 8.53353 120.676 8.4916C120.213 8.44014 119.647 8.38867 119.082 8.38867C118.259 8.38867 117.436 8.4916 116.665 8.80039C115.894 9.10917 115.226 9.52089 114.66 10.087C114.094 10.6531 113.632 11.3221 113.323 12.1456C113.015 12.9175 112.86 13.8954 112.86 14.9246C112.86 15.9539 113.015 16.8803 113.323 17.7037C113.58 18.5271 114.043 19.1962 114.557 19.7623C115.123 20.3284 115.74 20.7401 116.511 21.0489C117.282 21.3062 118.156 21.4606 119.082 21.4606C120.213 21.4606 121.138 21.4092 121.858 21.2548C122.63 21.1004 123.144 20.9974 123.504 20.843V14.6159H120.676V18.9903C120.604 18.9903 120.521 19.0014 120.433 19.0133C120.331 19.027 120.22 19.0418 120.11 19.0418H119.287C118.722 19.0418 118.208 18.9389 117.796 18.733C117.385 18.5786 117.025 18.2698 116.717 17.9096C116.408 17.5493 116.202 17.1376 116.048 16.623C115.894 16.1083 115.843 15.5422 115.843 14.9246C115.843 13.6895 116.151 12.6602 116.717 11.9397ZM127.463 21.2048V8.64746H135.895V11.0148H130.291V13.4851H135.278V15.801H130.291V18.8374H136.255V21.2048H127.463ZM143.298 8.49219C145.201 8.49219 146.64 8.85244 147.617 9.52147C148.594 10.1905 149.108 11.2198 149.16 12.6093C149.16 13.4842 148.954 14.2047 148.543 14.7708C148.131 15.2855 147.566 15.7487 146.794 16.0574C147.052 16.3662 147.309 16.7265 147.566 17.1382C147.662 17.2923 147.765 17.4463 147.87 17.6031L147.871 17.6032L147.871 17.6033C148.047 17.8654 148.228 18.135 148.388 18.4248L149.16 19.8143L149.16 19.8145C149.417 20.2776 149.674 20.7408 149.879 21.2039H146.743C146.614 20.998 146.499 20.7922 146.383 20.5864C146.267 20.3805 146.152 20.1746 146.023 19.9687C145.895 19.7629 145.779 19.557 145.663 19.3511C145.548 19.1453 145.432 18.9394 145.303 18.7336C145.232 18.6193 145.165 18.509 145.099 18.4015L145.098 18.3996L145.097 18.3989L145.097 18.3986C144.927 18.12 144.769 17.8607 144.583 17.6014C144.525 17.5193 144.469 17.4399 144.415 17.3626L144.415 17.3625L144.414 17.3623C144.23 17.1003 144.062 16.8619 143.864 16.6236H142.475V21.2039H139.647V8.80097C140.264 8.69804 140.881 8.59512 141.55 8.54365C142.218 8.49219 142.784 8.49219 143.298 8.49219ZM143.504 10.9625H142.938C142.784 10.9625 142.63 10.9625 142.527 11.0654V14.4621H143.298C144.326 14.4621 145.098 14.3077 145.56 14.0503C146.023 13.793 146.229 13.3298 146.229 12.7123C146.229 12.0947 146.023 11.6315 145.56 11.3742C145.098 11.1169 144.429 10.9625 143.504 10.9625ZM183.566 12.8342C184.079 13.0079 184.671 13.0947 185.342 13.0947C185.95 13.0947 186.475 13 186.917 12.8105C187.36 12.621 187.699 12.3565 187.936 12.017C188.181 11.6696 188.303 11.2708 188.303 10.8208C188.303 10.2286 188.114 9.7746 187.735 9.45877C187.356 9.13505 186.759 8.89028 185.946 8.72447L184.726 8.47575C184.15 8.35732 183.731 8.17966 183.471 7.94279C183.218 7.70592 183.092 7.3743 183.092 6.94793C183.092 6.41892 183.293 6.00045 183.696 5.69251C184.099 5.37669 184.643 5.21877 185.33 5.21877C185.851 5.21877 186.317 5.29773 186.728 5.45564C187.138 5.60566 187.529 5.85438 187.9 6.20179L188.196 5.60961C187.849 5.2622 187.431 5.00164 186.941 4.82793C186.459 4.64633 185.923 4.55553 185.33 4.55553C184.738 4.55553 184.217 4.65423 183.767 4.85162C183.317 5.04901 182.966 5.32931 182.713 5.69251C182.46 6.05572 182.334 6.48209 182.334 6.97162C182.334 7.57169 182.519 8.04544 182.891 8.39285C183.27 8.74026 183.842 8.99292 184.608 9.15084L185.816 9.39955C186.455 9.52588 186.902 9.69959 187.154 9.92067C187.415 10.1339 187.545 10.4457 187.545 10.8563C187.545 11.3301 187.36 11.713 186.988 12.0051C186.617 12.2894 186.065 12.4315 185.33 12.4315C184.92 12.4315 184.553 12.3999 184.229 12.3368C183.905 12.2657 183.605 12.1591 183.329 12.017C183.06 11.8749 182.784 11.6933 182.5 11.4722L182.192 12.0762C182.594 12.4078 183.052 12.6605 183.566 12.8342ZM190.201 4.65028V13H195.282V12.3486H190.936V4.65028H190.201ZM199.772 4.65028L196.136 13H196.906L197.849 10.7734H202.395L203.361 13H204.13L200.435 4.65028H199.772ZM198.127 10.1457L200.092 5.53855H200.115L202.126 10.1457H198.127ZM203.322 4.65028L206.935 13H207.657L211.293 4.65028H210.523L207.308 12.1068L204.116 4.65028H203.322ZM214.109 4.65028L210.473 13H211.243L212.186 10.7734H216.733L217.698 13H218.468L214.772 4.65028H214.109ZM212.464 10.1457L214.429 5.53855H214.453L216.463 10.1457H212.464ZM183.341 25.2302C183.925 25.8223 184.813 26.1184 186.005 26.1184C187.166 26.1184 188.039 25.8223 188.623 25.2302C189.215 24.6301 189.511 23.7458 189.511 22.5772V17.6503H188.007V22.5654C188.007 23.3076 187.837 23.8682 187.498 24.2472C187.166 24.6261 186.669 24.8156 186.005 24.8156C185.311 24.8156 184.801 24.6261 184.478 24.2472C184.162 23.8682 184.004 23.3076 184.004 22.5654V17.6503H182.476V22.5772C182.476 23.7458 182.764 24.6301 183.341 25.2302ZM191.527 17.6503V26H193.055V22.139H193.079L196.94 26H198.847L194.541 21.661L198.562 17.6503H196.715L193.079 21.3455H193.055V17.6503H191.527ZM199.652 17.6503V26H201.18V22.6127H202.483C202.799 22.6127 203.067 22.6562 203.288 22.743C203.517 22.8299 203.687 23.0115 203.797 23.2878L205.029 26H206.711L205.491 23.3826C205.325 23.0273 205.112 22.7628 204.852 22.5891C204.738 22.5131 204.617 22.4538 204.489 22.411C204.624 22.3719 204.753 22.3246 204.875 22.2693C205.294 22.0719 205.613 21.7916 205.835 21.4284C206.064 21.0652 206.178 20.627 206.178 20.1137C206.178 19.34 205.925 18.7359 205.42 18.3017C204.923 17.8674 204.216 17.6503 203.3 17.6503H199.652ZM203.051 21.4876H201.18V18.8465H203.051C203.588 18.8465 203.995 18.957 204.271 19.1781C204.555 19.3992 204.698 19.7269 204.698 20.1611C204.698 20.5954 204.555 20.927 204.271 21.156C203.995 21.3771 203.588 21.4876 203.051 21.4876ZM211.178 17.6503L207.4 26H208.939L209.778 24.0695H213.892L214.731 26H216.282L212.457 17.6503H211.178ZM210.29 22.8733L211.805 19.2847H211.853L213.4 22.8733H210.29ZM217.443 17.6503V26H218.971V17.6503H217.443ZM221.046 17.6503V26H222.467V20.1186L227.003 26H228.152V17.6503H226.73V23.5172L222.194 17.6503H221.046ZM230.223 17.6503V26H231.751V17.6503H230.223Z" fill="white"/>
</g>
<defs>
<clipPath id="clip0_4032_91737">
<rect width="232" height="30.0037" fill="white"/>
</clipPath>
</defs>
</svg>
